<?xml version="1.0" standalone="no"?>
<!DOCTYPE svg PUBLIC "-//W3C//DTD SVG 20010904//EN"
 "http://www.w3.org/TR/2001/REC-SVG-20010904/DTD/svg10.dtd">
<svg version="1.0" xmlns="http://www.w3.org/2000/svg"
 width="512.000000pt" height="512.000000pt" viewBox="0 0 512.000000 512.000000"
 preserveAspectRatio="xMidYMid meet">
<metadata>
Created by potrace 1.14, written by Peter Selinger 2001-2017
</metadata>
<g transform="translate(0.000000,512.000000) scale(0.100000,-0.100000)"
fill="#000000" stroke="none">
<path d="M3733 4337 c5 -14 2 -15 -20 -6 -21 8 -30 6 -42 -7 -15 -15 -14 -15
9 -5 21 10 22 10 6 -1 -10 -7 -30 -25 -44 -40 -14 -15 -29 -25 -33 -22 -5 3
-6 -1 -3 -9 3 -8 -2 -22 -11 -30 -17 -18 -105 -163 -105 -175 0 -4 -18 -37
-39 -74 -21 -37 -37 -69 -34 -72 3 -3 -2 -17 -11 -31 -9 -14 -13 -25 -9 -25 5
0 3 -4 -2 -8 -15 -11 -49 -66 -35 -57 8 5 8 1 -1 -13 -7 -12 -17 -18 -23 -15
-5 3 -7 2 -3 -3 3 -5 -5 -32 -19 -59 -13 -28 -24 -55 -24 -62 0 -6 -6 -18 -13
-25 -7 -7 -14 -16 -15 -21 0 -4 -11 -35 -24 -70 -12 -34 -22 -65 -20 -69 1 -5
-2 -8 -7 -8 -5 0 -8 -8 -7 -17 1 -19 -26 -28 -52 -18 -9 4 -33 8 -52 10 -20 1
-72 6 -115 10 -44 4 -138 8 -210 9 -71 0 -136 5 -144 10 -10 6 -12 6 -7 -2 9
-16 -7 -15 -22 0 -7 7 -12 8 -12 2 0 -11 -131 -11 -149 0 -6 4 -11 1 -11 -6 0
-9 -3 -9 -10 2 -7 10 -10 11 -10 2 0 -9 -8 -10 -27 -6 -15 4 -43 6 -63 5 -19
-1 -64 -3 -100 -4 -36 -1 -70 -5 -75 -9 -6 -3 -43 -8 -83 -10 -39 -2 -72 -6
-72 -9 0 -4 -9 -9 -20 -12 -11 -3 -18 -1 -14 4 3 5 0 9 -5 9 -6 0 -11 -5 -11
-10 0 -7 -7 -7 -21 1 -15 8 -19 8 -15 0 4 -6 2 -11 -3 -11 -6 0 -11 5 -11 11
0 5 -4 7 -10 4 -9 -6 -14 8 -11 28 0 4 -3 7 -9 7 -5 0 -10 7 -10 15 0 8 -4 15
-10 15 -5 0 -10 9 -10 20 0 11 -3 20 -8 20 -4 0 -13 15 -21 33 -8 17 -19 35
-25 39 -7 5 -7 8 2 8 8 0 3 11 -12 27 -14 15 -23 30 -20 35 3 4 0 8 -6 8 -6 0
-9 4 -5 9 3 5 -6 21 -20 35 -14 14 -22 26 -18 26 4 1 -2 9 -14 19 -12 10 -19
21 -16 25 4 3 0 6 -9 6 -8 0 -23 17 -34 37 -10 20 -34 52 -52 71 -18 19 -30
38 -26 45 4 7 4 9 -1 5 -4 -4 -18 4 -31 17 -13 14 -28 25 -34 25 -9 0 -14 14
-11 33 1 5 -3 6 -8 3 -12 -8 -33 18 -23 29 4 5 2 5 -4 2 -7 -4 -15 0 -18 9 -3
8 -10 12 -16 9 -5 -3 -10 0 -10 8 0 13 -82 91 -98 93 -4 0 -14 4 -22 7 -17 7
-39 5 -57 -6 -12 -7 -73 -186 -73 -213 0 -8 -5 -14 -12 -14 -6 0 -8 -3 -5 -7
4 -3 2 -12 -4 -20 -6 -7 -9 -13 -6 -13 4 0 -7 -38 -23 -84 -17 -47 -30 -94
-30 -106 0 -11 -11 -48 -25 -81 -14 -33 -33 -97 -41 -142 -9 -45 -19 -86 -24
-92 -5 -5 -11 -30 -15 -55 -4 -25 -11 -50 -16 -56 -5 -6 -11 -26 -13 -45 -3
-19 -6 -35 -7 -36 -1 -2 -2 -12 -3 -22 0 -11 -4 -22 -8 -26 -4 -4 -4 -13 -1
-21 3 -8 -1 -14 -8 -14 -7 0 -10 -3 -7 -6 4 -3 2 -20 -3 -37 -6 -18 -12 -43
-15 -56 -3 -14 -7 -28 -10 -33 -5 -8 -13 -38 -18 -68 -1 -8 -6 -26 -10 -40 -4
-14 -9 -46 -11 -70 -2 -25 -4 -46 -5 -47 -4 -5 -8 -23 -9 -49 -1 -17 -5 -23
-13 -18 -9 5 -9 2 1 -9 9 -12 10 -17 2 -17 -7 0 -9 -4 -6 -10 3 -5 1 -10 -5
-10 -7 0 -10 -7 -7 -15 4 -8 2 -17 -4 -20 -5 -4 -7 -11 -4 -16 4 -5 2 -9 -2
-9 -5 0 -8 -15 -7 -32 1 -18 -1 -37 -4 -43 -4 -5 -7 -23 -8 -40 -1 -16 -3 -30
-4 -30 -1 0 -3 -13 -5 -28 -1 -16 -8 -32 -15 -37 -10 -6 -9 -9 1 -13 8 -3 9
-6 3 -6 -6 -1 -9 -12 -6 -26 2 -14 0 -25 -4 -25 -5 0 -10 -12 -11 -27 -1 -30
-11 -79 -20 -103 -4 -8 -5 -19 -4 -24 1 -4 -3 -14 -9 -20 -5 -7 -7 -16 -3 -20
4 -4 1 -11 -7 -16 -8 -6 -10 -10 -4 -10 7 0 9 -15 5 -42 -4 -24 -6 -58 -5 -75
0 -18 -3 -33 -7 -33 -5 0 -9 -7 -9 -16 0 -12 -4 -14 -13 -7 -6 6 -20 9 -29 8
-10 -2 -20 1 -23 6 -4 5 -16 3 -28 -4 -12 -8 -34 -13 -49 -12 -15 0 -25 -2
-22 -6 2 -4 -3 -9 -11 -13 -8 -3 -17 -1 -20 4 -4 6 -18 7 -32 4 -16 -4 -24 -3
-20 3 3 5 -4 9 -16 8 -12 -2 -21 -8 -19 -14 2 -8 -4 -10 -17 -6 -11 3 -22 1
-26 -5 -5 -8 -11 -8 -21 1 -8 6 -15 9 -15 5 -1 -3 -2 -10 -3 -15 0 -5 -5 -13
-10 -18 -5 -4 -6 -3 -3 3 4 7 -2 14 -13 17 -11 3 -18 2 -15 -3 3 -4 -2 -14
-11 -21 -8 -7 -14 -8 -13 -3 4 24 -3 24 -22 0 -15 -20 -25 -24 -37 -17 -13 7
-20 4 -29 -15 -9 -20 -9 -24 5 -24 14 0 15 -2 2 -10 -9 -5 -19 -5 -26 1 -8 7
-14 6 -19 -1 -6 -10 1 -14 19 -11 5 1 6 -5 2 -14 -3 -9 -2 -13 3 -10 5 3 12 1
16 -5 4 -7 13 -7 26 1 12 6 23 8 26 5 3 -3 12 2 20 12 8 9 12 11 8 5 -4 -9 -1
-11 9 -7 9 3 13 11 10 16 -4 6 3 5 15 -1 18 -10 21 -9 22 6 0 11 3 13 6 5 4
-10 8 -10 19 -1 11 9 14 8 14 -2 0 -10 3 -10 11 -2 6 6 17 9 24 7 7 -3 16 0
21 7 5 8 3 10 -6 4 -9 -5 -11 -4 -6 4 5 8 12 9 20 2 7 -6 17 -6 26 -1 9 6 20
4 29 -3 12 -10 13 -9 6 2 -6 11 -4 13 9 8 10 -4 20 -7 22 -7 3 0 2 -6 -2 -12
-5 -8 0 -7 11 2 10 8 20 14 22 13 10 -8 23 -1 17 9 -5 8 -2 9 9 5 10 -4 17 -1
18 6 0 7 4 3 9 -8 5 -11 9 -14 9 -6 1 7 7 11 16 8 8 -4 17 -2 20 3 3 5 14 8
25 7 10 -1 16 -5 14 -9 -6 -10 -16 -88 -17 -133 0 -30 -27 -71 -27 -43 0 11
-2 11 -8 0 -5 -7 -28 -14 -53 -16 -24 -2 -47 -4 -51 -5 -5 -1 -8 -6 -8 -12 0
-8 5 -8 15 1 18 15 20 4 2 -14 -10 -10 -15 -10 -24 -1 -7 7 -11 15 -10 17 1 2
-2 0 -7 -4 -5 -4 -3 -15 5 -25 12 -16 11 -16 -8 1 -13 10 -20 24 -17 30 3 6
-1 3 -9 -6 -16 -21 -31 -24 -22 -5 4 6 -1 3 -9 -7 -11 -14 -16 -15 -16 -6 0 9
-5 8 -16 -6 -8 -10 -13 -14 -10 -8 3 7 -1 15 -10 18 -8 3 -13 2 -10 -3 3 -5
-2 -12 -11 -15 -9 -4 -20 -2 -23 5 -6 8 -9 8 -15 0 -5 -9 -10 -9 -20 -1 -10 8
-15 8 -20 0 -4 -6 -13 -9 -21 -6 -7 3 -16 1 -19 -5 -4 -5 -12 -6 -18 -2 -8 4
-7 1 1 -9 10 -13 10 -18 1 -24 -7 -4 -9 -3 -6 3 4 6 -2 13 -13 16 -11 3 -18 1
-14 -4 5 -8 -9 -13 -31 -10 -5 1 1 -8 14 -19 14 -12 18 -20 10 -20 -9 0 -10
-3 -4 -8 6 -4 11 -14 13 -22 2 -12 -1 -11 -11 2 -8 10 -18 14 -23 10 -4 -4 -3
0 4 9 6 9 9 19 5 22 -12 13 -18 7 -19 -18 -1 -15 3 -25 12 -25 8 0 14 -4 14
-9 0 -4 13 -8 29 -7 16 1 27 5 23 10 -3 5 4 7 16 4 13 -4 23 0 26 8 3 8 11 14
18 14 9 0 8 -3 -2 -10 -8 -5 -10 -10 -5 -10 6 0 16 5 22 11 14 14 73 18 73 5
0 -6 6 -4 13 4 8 11 32 16 75 17 48 1 68 6 79 20 8 10 11 12 7 4 -5 -10 -3
-12 7 -5 17 10 101 15 94 5 -2 -4 -6 -27 -9 -52 -4 -24 -9 -60 -12 -79 -10
-66 -10 -90 -1 -90 6 0 6 -5 0 -12 -19 -26 -22 -340 -3 -363 11 -13 10 -15 -6
-9 -18 5 -18 5 -1 -9 20 -16 23 -31 5 -22 -7 4 -4 -1 6 -9 12 -10 28 -14 40
-9 12 3 28 5 36 4 8 0 24 -1 35 -1 34 2 38 2 115 -5 156 -13 3597 -23 3685
-11 101 14 115 14 125 -3 8 -14 9 -14 10 2 0 11 8 17 23 17 18 0 19 2 7 10
-13 8 -12 10 4 10 11 0 17 3 13 6 -3 3 -2 16 3 29 5 13 6 25 3 29 -9 9 -11 76
-2 70 5 -2 2 7 -5 20 -7 14 -12 44 -10 68 1 24 -2 59 -6 78 -5 19 -10 55 -11
80 -1 25 -5 49 -8 54 -2 6 -6 24 -7 40 -8 91 -10 104 -15 100 -4 -2 -7 12 -7
31 0 20 4 32 10 29 5 -3 4 3 -3 14 -11 18 -10 24 5 41 21 23 73 30 60 9 -6
-10 -4 -10 7 -2 8 6 26 11 41 10 14 -1 24 2 22 6 -2 3 0 9 6 13 5 3 10 2 10
-4 0 -5 8 -8 18 -6 9 1 23 -2 30 -8 8 -6 12 -6 12 2 0 9 5 9 20 1 16 -8 20 -8
20 3 0 8 8 21 18 28 15 13 16 12 4 -3 -19 -23 -7 -41 18 -28 15 8 22 6 30 -7
10 -16 11 -15 6 5 -3 18 -2 21 9 12 20 -17 84 -19 78 -3 -3 7 0 13 6 13 6 0
11 5 11 11 0 5 -4 7 -10 4 -5 -3 -10 -1 -10 4 0 6 5 11 11 11 6 0 3 7 -5 16
-9 8 -16 19 -16 23 0 9 -42 7 -58 -3 -7 -4 -12 -3 -12 1 0 5 -23 8 -50 7 -28
0 -53 3 -56 8 -3 5 -12 1 -20 -9 -7 -10 -14 -13 -14 -8 0 6 -11 12 -26 13 -14
1 -23 -2 -19 -8 3 -6 1 -10 -4 -10 -6 0 -11 5 -11 11 0 8 -6 7 -17 -2 -14 -12
-16 -12 -8 0 6 11 4 13 -8 8 -10 -4 -24 -10 -34 -14 -9 -4 -14 -2 -10 3 3 6
-3 11 -14 11 -13 1 -17 -2 -12 -10 4 -7 -1 -5 -12 3 -17 14 -17 13 -11 -10 6
-21 5 -22 -4 -7 -6 9 -15 15 -19 12 -5 -2 -14 22 -21 55 -7 33 -16 60 -19 60
-4 0 -8 12 -9 28 -1 15 -4 38 -7 51 -2 13 -1 21 2 17 4 -3 15 6 25 21 10 16
18 23 18 16 0 -6 -4 -15 -10 -18 -5 -3 -10 -14 -9 -23 0 -10 3 -12 5 -5 3 7
12 9 21 6 12 -5 14 -3 8 6 -6 10 -2 11 15 6 17 -5 21 -4 15 5 -6 9 -4 11 6 5
19 -13 49 -14 49 -2 0 5 5 5 13 -1 7 -6 18 -7 26 -2 8 4 20 6 28 3 7 -3 13 0
13 7 0 7 6 10 14 7 7 -3 19 0 25 6 8 8 11 8 11 -1 0 -16 47 -15 53 1 4 9 8 8
16 -3 8 -12 13 -12 23 -2 14 14 32 16 23 2 -3 -5 -1 -10 4 -10 6 0 11 5 11 11
0 5 6 7 13 3 6 -4 3 2 -7 14 -19 22 -32 30 -22 14 2 -4 -5 -9 -17 -9 -20 -2
-20 -1 -4 8 9 6 15 14 12 19 -3 5 0 12 6 16 7 4 9 3 6 -3 -9 -15 21 -25 40
-15 13 8 13 10 -1 15 -10 4 -15 3 -11 -3 3 -6 1 -10 -6 -10 -6 0 -9 8 -7 18 5
16 -2 18 -53 19 -31 0 -62 4 -68 7 -6 4 -11 1 -11 -6 0 -8 -3 -9 -8 -3 -10 14
-44 12 -60 -3 -8 -7 -17 -10 -22 -7 -5 3 -11 1 -15 -5 -4 -6 -12 -7 -18 -3
-20 13 -49 14 -41 2 4 -7 -1 -7 -16 1 -21 11 -22 10 -17 -9 3 -11 1 -24 -4
-27 -5 -3 -9 -2 -8 3 4 26 -1 35 -15 24 -11 -9 -16 -9 -22 0 -5 8 -3 9 6 4 9
-5 11 -4 6 4 -4 6 -12 9 -17 5 -5 -3 -7 -10 -4 -15 4 -5 1 -9 -4 -9 -6 0 -11
5 -11 11 0 5 -4 8 -9 4 -13 -7 -29 24 -26 48 2 9 0 17 -4 17 -4 0 -8 6 -9 13
-5 38 -9 54 -19 72 -6 11 -13 40 -15 65 -1 25 -6 48 -10 51 -5 3 -9 17 -10 32
-1 15 -6 27 -11 27 -4 0 -5 5 -2 10 3 6 1 10 -6 10 -7 0 -10 3 -6 6 3 3 1 18
-4 32 -5 14 -12 46 -15 71 -2 25 -8 60 -11 76 -4 17 -6 33 -5 38 1 4 -2 7 -8
7 -5 0 -10 8 -10 18 0 10 -5 23 -12 30 -7 7 -9 12 -5 12 4 0 1 13 -8 30 -8 16
-15 32 -15 35 0 3 0 6 -1 8 -2 4 -9 49 -15 95 -3 23 -11 42 -16 42 -6 0 -8 11
-6 25 3 13 2 23 -1 20 -4 -2 -13 0 -21 6 -11 6 -12 9 -2 9 8 0 10 5 5 13 -9
15 -14 36 -14 60 0 9 -6 29 -14 44 -8 15 -12 30 -9 35 3 4 1 8 -5 8 -5 0 -8 9
-6 20 2 11 -1 20 -6 20 -6 0 -7 5 -4 10 3 6 0 10 -7 10 -9 0 -9 3 2 10 11 7
11 10 2 10 -7 0 -12 6 -10 13 1 6 -3 22 -10 35 -7 12 -10 22 -7 22 3 0 -1 16
-9 35 -8 19 -13 35 -10 35 2 0 -4 12 -13 27 -10 15 -17 30 -16 33 4 10 -10 55
-23 74 -7 10 -10 25 -7 32 3 8 0 14 -5 14 -6 0 -16 26 -23 58 -7 31 -20 74
-30 95 -9 20 -13 34 -8 31 5 -3 0 12 -12 32 -11 21 -22 45 -24 54 -2 8 -12 39
-24 68 -11 28 -18 52 -15 52 4 0 2 6 -3 13 -6 6 -16 30 -23 52 -7 21 -28 70
-47 107 -19 37 -32 72 -28 78 3 5 1 10 -4 10 -6 0 -11 5 -11 11 0 6 -11 34
-25 61 -14 27 -22 55 -18 61 3 7 3 9 -2 5 -9 -9 -34 20 -35 40 0 6 -10 22 -22
34 -15 15 -20 17 -15 5z m1169 -2349 c-8 -8 -9 -4 -5 13 4 13 8 18 11 10 2 -7
-1 -18 -6 -23z m-92 17 c0 -7 -30 -13 -34 -7 -3 4 4 9 15 9 10 1 19 0 19 -2z
m55 -24 c-9 -8 -36 -10 -30 -2 2 4 11 8 20 8 8 0 13 -3 10 -6z m-175 -21 c0
-5 -5 -10 -11 -10 -5 0 -7 5 -4 10 3 6 8 10 11 10 2 0 4 -4 4 -10z m40 -25
c-7 -9 -15 -13 -19 -10 -3 3 1 10 9 15 21 14 24 12 10 -5z m-4124 -27 c5 4 5
3 1 -2 -12 -15 -34 -15 -34 0 0 9 4 11 12 4 7 -5 16 -6 21 -2z m-211 -28 c10
-11 16 -20 13 -20 -3 0 -13 9 -23 20 -10 11 -16 20 -13 20 3 0 13 -9 23 -20z
m225 5 c-7 -8 -17 -15 -23 -15 -6 0 -2 7 9 15 25 19 30 19 14 0z m-390 -65 c0
-5 -2 -10 -4 -10 -3 0 -8 5 -11 10 -3 6 -1 10 4 10 6 0 11 -4 11 -10z m-76
-62 c-3 -4 -9 -8 -15 -8 -5 0 -9 4 -9 8 0 5 7 9 15 9 8 0 12 -4 9 -9z m4862
-117 c1 -14 -1 -20 -3 -13 -3 6 -8 10 -12 8 -4 -3 -7 3 -7 13 0 28 21 20 22
-8z m-206 -1 c0 -5 -5 -10 -11 -10 -5 0 -7 5 -4 10 3 6 8 10 11 10 2 0 4 -4 4
-10z m-4557 -74 c4 -10 1 -13 -8 -9 -8 3 -12 9 -9 14 7 12 11 11 17 -5z m277
-2 c0 -8 -19 -13 -24 -6 -3 5 1 9 9 9 8 0 15 -2 15 -3z m-160 -25 c0 -4 -9 -7
-19 -6 -11 0 -18 4 -16 7 6 9 35 8 35 -1z m35 2 c3 -5 2 -12 -3 -15 -5 -3 -9
1 -9 9 0 17 3 19 12 6z m60 -1 c3 -5 1 -10 -4 -10 -6 0 -11 5 -11 10 0 6 2 10
4 10 3 0 8 -4 11 -10z m-245 -14 c0 -2 -8 -10 -17 -17 -16 -13 -17 -12 -4 4
13 16 21 21 21 13z"/>
<path d="M116 1827 c3 -10 9 -15 12 -12 3 3 0 11 -7 18 -10 9 -11 8 -5 -6z"/>
</g>
</svg>
